<svg width="401" height="648" viewBox="0 0 401 648" fill="none" xmlns="http://www.w3.org/2000/svg">
<path d="M49.6927 241.679L-175.209 464.717C-185.446 445.267 -194.39 425.069 -202.149 404.336L-30.0519 233.664C-29.8364 233.45 -29.6208 233.343 -29.5131 233.13L-24.1249 227.786C-23.6939 227.359 -23.1551 226.824 -22.8318 226.29C-16.4738 218.595 -16.9048 207.16 -24.1249 200L-202.149 23.6641C-194.39 2.93126 -185.338 -17.2672 -175.209 -36.7176L49.6927 186.321C65.1028 201.603 65.1028 226.397 49.6927 241.679Z" fill="#E4E8EC"/>
<path d="M175.452 241.679L-126.716 541.344C-137.492 527.023 -147.622 512.275 -156.997 496.886L108.316 233.771C108.639 233.557 108.854 233.237 109.07 233.023L114.242 227.893C114.674 227.466 115.212 226.931 115.536 226.397C121.894 218.702 121.463 207.267 114.242 200.107L-156.997 -68.8855C-147.622 -84.1679 -137.6 -99.0229 -126.716 -113.344L175.452 186.321C190.862 201.603 190.862 226.397 175.452 241.679Z" fill="#E4E8EC"/>
<path d="M288.819 241.679L-74.0196 601.405C-84.4726 591.145 -94.4945 580.351 -104.085 569.237L234.183 233.771C234.506 233.557 234.722 233.237 235.045 232.916L240.217 227.786C240.648 227.359 241.187 226.824 241.511 226.29C247.761 218.702 247.438 207.481 240.433 200.321C240.325 200.214 240.325 200.107 240.217 200.107L-104.085 -141.344C-94.4945 -152.458 -84.4726 -163.145 -74.0196 -173.511L288.819 186.321C304.229 201.603 304.229 226.397 288.819 241.679Z" fill="#E4E8EC"/>
<path d="M389.361 241.679L-20.2458 648C-29.729 640.733 -38.9966 633.252 -47.9409 625.45L346.903 233.878C347.226 233.664 347.442 233.343 347.765 233.023L352.937 227.893C353.368 227.466 353.907 226.931 354.231 226.397C360.481 218.809 360.158 207.588 353.153 200.427C353.045 200.321 353.045 200.214 352.937 200.214L-47.9409 -197.344C-39.1044 -205.252 -29.8367 -212.733 -20.2458 -220L389.469 186.321C404.771 201.603 404.771 226.397 389.361 241.679Z" fill="#E4E8EC"/>
</svg>
