<svg width="18" height="21" viewBox="0 0 18 21" fill="none" xmlns="http://www.w3.org/2000/svg">
<path fill-rule="evenodd" clip-rule="evenodd" d="M9.00008 0C11.404 0 13.6642 0.915802 15.364 2.5787C17.0639 4.24152 18 6.45236 18 8.80408C18 11.1557 17.0638 13.3666 15.3639 15.0295L9.44478 20.8198C9.32201 20.9399 9.16105 21 9.00008 21C8.83916 21 8.6782 20.94 8.55539 20.8198L2.63603 15.0295C0.936176 13.3666 0 11.1557 0 8.80404C0 6.4524 0.936176 4.24157 2.63603 2.5787C4.33602 0.915756 6.59612 0 9.00008 0ZM8.99916 12.7144C10.0669 12.7144 11.0706 12.3076 11.8256 11.5691C12.5805 10.8306 12.9963 9.84863 12.9964 8.80416C12.9964 7.75969 12.5806 6.77777 11.8256 6.03929C11.0706 5.30075 10.0669 4.89404 8.99916 4.89404C7.93146 4.89404 6.92769 5.30075 6.17278 6.03929C5.41777 6.77786 5.00201 7.75977 5.00201 8.8042C5.00201 9.84867 5.41777 10.8306 6.17278 11.5691C6.92769 12.3076 7.93146 12.7144 8.99916 12.7144Z" fill="#FB342E"/>
</svg>
