<svg width="22" height="24" viewBox="0 0 22 24" fill="none" xmlns="http://www.w3.org/2000/svg">
<g clip-path="url(#clip0_1324_344)">
<path fill-rule="evenodd" clip-rule="evenodd" d="M0.737793 0H2.86104L4.22669 4.27813H4.35628L5.68206 0H7.82524L5.36308 6.26043V10.7004H3.2498V6.46271L0.737793 0ZM8.04462 4.61186C8.04462 3.98481 8.3038 3.47912 8.81218 3.11502C9.32056 2.74081 10.0084 2.55876 10.8656 2.55876C11.6432 2.55876 12.2911 2.75093 12.7895 3.14536C13.2879 3.5398 13.5371 4.04549 13.5371 4.66243V8.84953C13.5371 9.54739 13.2879 10.0834 12.7995 10.488C12.311 10.8824 11.6332 11.0847 10.7759 11.0847C9.94857 11.0847 9.29066 10.8824 8.79224 10.4779C8.29383 10.0733 8.04462 9.51704 8.04462 8.82931V4.61186ZM9.98844 8.9709C9.98844 9.1934 10.0582 9.36534 10.1878 9.4867C10.3174 9.60807 10.5168 9.66875 10.766 9.66875C11.0251 9.66875 11.2245 9.60807 11.374 9.4867C11.5236 9.36534 11.6033 9.1934 11.6033 8.9709V4.55118C11.6033 4.36913 11.5236 4.22754 11.374 4.1264C11.2245 4.01515 11.0152 3.96458 10.766 3.96458C10.5367 3.96458 10.3473 4.01515 10.2077 4.1264C10.0682 4.23765 9.98844 4.37924 9.98844 4.55118V8.9709ZM20.445 10.7913V2.68003H18.571V8.83932C18.3915 9.01125 18.1922 9.16296 17.9828 9.27421C17.7735 9.38546 17.5941 9.44615 17.4545 9.44615C17.2751 9.44615 17.1455 9.39558 17.0658 9.31467C16.986 9.23376 16.9461 9.09216 16.9461 8.9V2.69014H15.0522V9.46637C15.0522 9.94172 15.1618 10.3058 15.3811 10.5485C15.6004 10.7913 15.9294 10.9126 16.368 10.9126C16.7169 10.9126 17.0857 10.8216 17.4645 10.6497C17.8433 10.4676 18.2022 10.2249 18.551 9.89115V10.7913H20.445Z" fill="white"/>
<path d="M21.8507 14.6549C21.8507 13.2491 20.4252 12.1062 18.6708 12.1062C16.1688 12.0253 13.6069 11.9849 10.9952 11.9849C8.38352 11.9849 5.82168 12.0152 3.31964 12.1062C1.56522 12.1062 0.139759 13.2491 0.139759 14.6549C0.0301075 15.7674 -0.00976562 16.8799 -0.00976562 17.9924C-0.00976562 19.105 0.0301075 20.2175 0.139759 21.33C0.139759 22.7358 1.56522 23.8787 3.31964 23.8787C5.82168 23.9596 8.38352 24 10.9952 24C13.6069 24 16.1688 23.9697 18.6708 23.8787C20.4252 23.8787 21.8507 22.7358 21.8507 21.33C21.9603 20.2175 22.0002 19.105 22.0002 17.9924C22.0102 16.8799 21.9603 15.7674 21.8507 14.6549Z" fill="white"/>
<path d="M6.31991 13.937H1.70459V15.0799H3.25964V21.8258H4.76485V15.0799H6.31991V13.937ZM8.7721 20.4199C8.64252 20.5514 8.51293 20.6526 8.3634 20.7335C8.21388 20.8144 8.09426 20.8548 7.99458 20.8548C7.86499 20.8548 7.77527 20.8245 7.72543 20.7638C7.66562 20.7031 7.64569 20.602 7.64569 20.4604V16.0002H6.29997V20.8649C6.29997 21.2088 6.37971 21.4718 6.53921 21.6437C6.6987 21.8156 6.92797 21.9067 7.23699 21.9067C7.48619 21.9067 7.74537 21.846 8.01451 21.7246C8.28366 21.6033 8.53286 21.4212 8.78207 21.1886V21.8359H10.1178V16.0204H8.7721V20.4199ZM13.9456 15.9294C13.7363 15.9294 13.5369 15.98 13.3276 16.071C13.1282 16.162 12.9388 16.2935 12.7594 16.4756V13.937H11.4137V21.8258H12.7594V21.3807C12.9388 21.5628 13.1282 21.6842 13.3276 21.7752C13.527 21.8561 13.7662 21.9067 14.0254 21.9067C14.4241 21.9067 14.7232 21.7954 14.9325 21.5729C15.1418 21.3504 15.2415 21.0369 15.2415 20.6222V17.3959C15.2415 16.9206 15.1319 16.5565 14.9026 16.3137C14.6933 16.0609 14.3743 15.9294 13.9456 15.9294ZM13.8759 20.4604C13.8759 20.6424 13.836 20.784 13.7562 20.8649C13.6765 20.9459 13.5569 20.9863 13.3974 20.9863C13.2877 20.9863 13.1781 20.9661 13.0784 20.9256C12.9787 20.8852 12.8691 20.8144 12.7594 20.7234V17.0925C12.8491 17.0116 12.9388 16.9509 13.0385 16.9105C13.1282 16.87 13.2279 16.8498 13.3176 16.8498C13.4971 16.8498 13.6366 16.9003 13.7363 17.0015C13.836 17.1026 13.8759 17.2543 13.8759 17.4465V20.4604ZM20.1858 19.0546V17.5679C20.1858 17.0116 20.0263 16.5969 19.6973 16.2935C19.3684 16.0002 18.8999 15.8485 18.2918 15.8485C17.6937 15.8485 17.2053 16.0103 16.8265 16.3239C16.4477 16.6374 16.2583 17.0521 16.2583 17.5577V20.1671C16.2583 20.7234 16.4277 21.1684 16.7766 21.492C17.1156 21.8156 17.594 21.9673 18.1921 21.9673C18.86 21.9673 19.3584 21.8156 19.6874 21.5122C20.0263 21.2088 20.1858 20.7638 20.1858 20.1671V19.7322H18.8102V20.1368C18.8102 20.4806 18.7703 20.7031 18.6806 20.8043C18.5909 20.9054 18.4413 20.956 18.2121 20.956C18.0027 20.956 17.8532 20.8953 17.7635 20.7739C17.6738 20.6526 17.6339 20.4402 17.6339 20.1368V19.0344H20.1858V19.0546ZM17.6339 17.5577C17.6339 17.315 17.6837 17.1431 17.7735 17.0318C17.8632 16.9307 18.0227 16.87 18.232 16.87C18.4314 16.87 18.5809 16.9206 18.6806 17.0318C18.7703 17.133 18.8201 17.315 18.8201 17.5577V18.1443H17.6439V17.5577H17.6339Z" fill="#212163"/>
</g>
<defs>
<clipPath id="clip0_1324_344">
<rect width="22" height="24" fill="white"/>
</clipPath>
</defs>
</svg>
