<svg width="24" height="24" viewBox="0 0 24 24" fill="none" xmlns="http://www.w3.org/2000/svg">
<rect width="24" height="24" rx="3" fill="white"/>
<path d="M12.4083 10.0629V9.68891H13.5308V14.9435H12.8892C12.7622 14.9437 12.6402 14.8937 12.5501 14.8044C12.46 14.7152 12.409 14.5939 12.4083 14.4672V14.4681C11.9398 14.8102 11.374 14.9942 10.7933 14.9934C10.0678 14.9934 9.37198 14.706 8.85881 14.1945C8.34563 13.683 8.05711 12.9891 8.05667 12.2655C8.05711 11.5419 8.34563 10.848 8.85881 10.3365C9.37198 9.82498 10.0678 9.53764 10.7933 9.53764C11.3737 9.53699 11.9392 9.721 12.4075 10.0629H12.4083ZM7.76583 8V8.17039C7.76583 8.48789 7.72333 8.74721 7.51583 9.05141L7.49083 9.07967C7.4217 9.157 7.35446 9.23598 7.28917 9.31655L3.68667 13.8264H7.76583V14.4647C7.76583 14.5277 7.75339 14.59 7.72922 14.6481C7.70504 14.7063 7.66961 14.7591 7.62495 14.8036C7.58029 14.848 7.52728 14.8833 7.46894 14.9073C7.41061 14.9313 7.3481 14.9436 7.285 14.9435H2V14.6426C2 14.2744 2.09167 14.1098 2.20833 13.9386L6.0475 9.19686H2.16V8H7.76667H7.76583ZM14.8917 14.9435C14.7856 14.9435 14.6838 14.9014 14.6088 14.8266C14.5338 14.7518 14.4917 14.6503 14.4917 14.5445V8H15.6925V14.9435H14.8917ZM19.2442 9.50439C19.606 9.50428 19.9642 9.57525 20.2985 9.71324C20.6328 9.85123 20.9366 10.0535 21.1925 10.3086C21.4484 10.5637 21.6514 10.8666 21.79 11.1999C21.9285 11.5332 21.9999 11.8905 22 12.2514C22.0001 12.6122 21.929 12.9695 21.7906 13.303C21.6523 13.6364 21.4494 13.9394 21.1937 14.1946C20.9379 14.4498 20.6343 14.6523 20.3001 14.7905C19.9659 14.9287 19.6076 14.9999 19.2458 15C18.5152 15.0002 17.8143 14.7109 17.2975 14.1958C16.7807 13.6806 16.4902 12.9818 16.49 12.253C16.4898 11.5243 16.7798 10.8253 17.2963 10.3098C17.8128 9.79432 18.5135 9.50461 19.2442 9.50439ZM10.7942 13.8705C11.0086 13.8753 11.2219 13.8374 11.4214 13.7589C11.621 13.6804 11.8028 13.5629 11.9562 13.4134C12.1096 13.2638 12.2315 13.0852 12.3147 12.888C12.3979 12.6908 12.4408 12.479 12.4408 12.2651C12.4408 12.0511 12.3979 11.8393 12.3147 11.6421C12.2315 11.4449 12.1096 11.2663 11.9562 11.1168C11.8028 10.9672 11.621 10.8497 11.4214 10.7712C11.2219 10.6928 11.0086 10.6548 10.7942 10.6597C10.3736 10.6692 9.97352 10.8426 9.67947 11.1426C9.38543 11.4426 9.22079 11.8455 9.22079 12.2651C9.22079 12.6846 9.38543 13.0875 9.67947 13.3876C9.97352 13.6876 10.3736 13.8609 10.7942 13.8705ZM19.2442 13.868C19.674 13.868 20.0863 13.6976 20.3903 13.3945C20.6942 13.0913 20.865 12.6801 20.865 12.2514C20.865 11.8226 20.6942 11.4114 20.3903 11.1083C20.0863 10.8051 19.674 10.6348 19.2442 10.6348C18.8143 10.6348 18.402 10.8051 18.0981 11.1083C17.7941 11.4114 17.6233 11.8226 17.6233 12.2514C17.6233 12.6801 17.7941 13.0913 18.0981 13.3945C18.402 13.6976 18.8143 13.868 19.2442 13.868Z" fill="#212163"/>
</svg>
