<svg width="144" height="227" viewBox="0 0 144 227" fill="none" xmlns="http://www.w3.org/2000/svg">
<path d="M18.0177 81.4174L-62.6342 161.331C-66.3055 154.362 -69.513 147.125 -72.2954 139.696L-10.5795 78.5456C-10.5023 78.469 -10.425 78.4307 -10.3863 78.3541L-8.45408 76.4396C-8.2995 76.2864 -8.10627 76.0949 -7.99033 75.9035C-5.71029 73.1465 -5.86488 69.0494 -8.45408 66.4839L-72.2954 3.30364C-69.513 -4.12483 -66.2668 -11.3618 -62.6342 -18.3308L18.0177 61.5826C23.5439 67.0583 23.5439 75.9418 18.0177 81.4174Z" fill="#ED110B"/>
<path d="M63.1164 81.4173L-45.2438 188.785C-49.1083 183.654 -52.7409 178.37 -56.103 172.856L39.0406 78.5837C39.1566 78.5071 39.2339 78.3923 39.3112 78.3157L41.1661 76.4777C41.3207 76.3245 41.5139 76.1331 41.6299 75.9417C43.9099 73.1847 43.7553 69.0875 41.1661 66.522L-56.103 -29.8566C-52.7409 -35.3322 -49.147 -40.6546 -45.2438 -45.7856L63.1164 61.5825C68.6426 67.0581 68.6426 75.9416 63.1164 81.4173Z" fill="#ED110B"/>
<path d="M103.771 81.4173L-26.3465 210.305C-30.095 206.629 -33.689 202.762 -37.1284 198.779L84.1778 78.5837C84.2938 78.5072 84.3711 78.3923 84.487 78.2774L86.342 76.4394C86.4965 76.2863 86.6898 76.0948 86.8057 75.9034C89.0471 73.1847 88.9312 69.1641 86.4193 66.5986C86.3806 66.5603 86.3806 66.522 86.342 66.522L-37.1284 -55.8179C-33.689 -59.8002 -30.095 -63.6293 -26.3465 -67.3435L103.771 61.5825C109.297 67.0581 109.297 75.9417 103.771 81.4173Z" fill="#ED110B"/>
<path d="M139.826 81.4174L-7.0629 227C-10.4636 224.396 -13.7871 221.716 -16.9946 218.921L124.6 78.6221C124.716 78.5456 124.793 78.4307 124.909 78.3158L126.764 76.4778C126.919 76.3247 127.112 76.1332 127.228 75.9418C129.469 73.2231 129.353 69.2025 126.842 66.637C126.803 66.5987 126.803 66.5605 126.764 66.5605L-16.9946 -75.8823C-13.8257 -78.7158 -10.5023 -81.3962 -7.0629 -84L139.865 61.5826C145.352 67.0582 145.352 75.9418 139.826 81.4174Z" fill="#ED110B"/>
</svg>
