<svg width="218" height="302" viewBox="0 0 218 302" fill="none" xmlns="http://www.w3.org/2000/svg">
<g opacity="0.8" clip-path="url(#clip0_1524_120)">
<path d="M49.4712 160.63L5.97514 204.172C3.26592 194.876 1.26183 185.283 0 175.466L17.5172 157.916C17.6285 157.842 17.7399 157.73 17.8141 157.619L19.5955 155.834C19.744 155.685 19.9295 155.499 20.0409 155.313C22.1934 152.673 22.0821 148.769 19.6697 146.278C19.6326 146.241 19.6326 146.203 19.5955 146.203L0 126.534C1.26183 116.68 3.26592 107.087 5.97514 97.7913L49.4712 141.37C54.7783 146.687 54.7783 155.313 49.4712 160.63Z" fill="#DBDFE4"/>
<path d="M97.0126 160.63L19.5584 238.231C16.0327 231.464 12.9524 224.436 10.2803 217.223L69.5492 157.842C69.6235 157.767 69.6977 157.73 69.7348 157.656L71.5904 155.797C71.7389 155.648 71.9245 155.462 72.0358 155.276C74.2254 152.599 74.077 148.62 71.5904 146.129L10.2803 84.7772C12.9524 77.5637 16.0699 70.5361 19.5584 63.7688L97.0126 141.37C102.32 146.687 102.32 155.313 97.0126 160.63Z" fill="#DBDFE4"/>
<path d="M140.323 160.63L36.2592 264.891C32.548 259.909 29.0594 254.778 25.8306 249.423L117.202 157.879C117.313 157.805 117.388 157.693 117.462 157.619L119.243 155.834C119.392 155.685 119.577 155.499 119.689 155.313C121.878 152.636 121.73 148.658 119.243 146.166L25.8306 52.5768C29.0594 47.2596 32.5109 42.0912 36.2592 37.1086L140.323 141.37C145.63 146.687 145.63 155.313 140.323 160.63Z" fill="#DBDFE4"/>
<path d="M179.366 160.63L54.4072 285.788C50.8072 282.219 47.3558 278.463 44.0527 274.596L160.549 157.879C160.661 157.804 160.735 157.693 160.846 157.581L162.628 155.797C162.776 155.648 162.962 155.462 163.073 155.276C165.226 152.636 165.114 148.732 162.702 146.241C162.665 146.203 162.665 146.166 162.628 146.166L44.0527 27.3666C47.3558 23.4996 50.8072 19.7813 54.4072 16.1746L179.366 141.37C184.673 146.687 184.673 155.313 179.366 160.63Z" fill="#DBDFE4"/>
<path d="M213.992 160.63L72.9266 302C69.6607 299.472 66.469 296.869 63.3887 294.154L199.37 157.916C199.481 157.842 199.555 157.73 199.666 157.619L201.448 155.834C201.596 155.685 201.782 155.499 201.893 155.313C204.046 152.673 203.934 148.769 201.522 146.278C201.485 146.241 201.485 146.203 201.448 146.203L63.3887 7.88279C66.4319 5.13125 69.6236 2.52844 72.9266 0L214.029 141.37C219.299 146.687 219.299 155.313 213.992 160.63Z" fill="#DBDFE4"/>
</g>
<defs>
<clipPath id="clip0_1524_120">
<rect width="218" height="302" fill="white"/>
</clipPath>
</defs>
</svg>
