<svg width="24" height="24" viewBox="0 0 24 24" fill="none" xmlns="http://www.w3.org/2000/svg">
<rect width="24" height="24" rx="3" fill="white"/>
<g clip-path="url(#clip0_1527_177)">
<path d="M12 4C7.02597 4 3 7.25713 3 11.2745C3 14.8527 6.2013 17.8281 10.4156 18.4375C10.513 18.4507 10.6169 18.4638 10.7143 18.4769C12.1494 18.7783 10.9026 20.5937 11.3766 20.9607C11.9156 21.3867 16.013 18.621 18.5 16.3011C18.8571 15.9996 19.1883 15.6654 19.4805 15.318L19.487 15.3115C19.5584 15.2328 19.6104 15.1673 19.6558 15.1018C20.5065 13.9877 21 12.6835 21 11.2745C21 7.25713 16.9675 4 12 4ZM9.06493 13.116C9.06493 13.3782 8.85065 13.5879 8.5974 13.5879H6.81818H6.81169H6.77922C6.51948 13.5879 6.31169 13.3716 6.31169 13.116V9.60332C6.31169 9.34117 6.52597 9.13146 6.77922 9.13146H6.81818C7.07792 9.13146 7.28571 9.34773 7.28571 9.60332V12.6049H8.59091C8.85065 12.6049 9.05844 12.8211 9.05844 13.0767V13.116H9.06493ZM10.4221 13.116C10.4221 13.3782 10.2078 13.5879 9.95454 13.5879H9.91558C9.65584 13.5879 9.44805 13.3716 9.44805 13.116V9.60332C9.44805 9.34117 9.66234 9.13146 9.91558 9.13146H9.95454C10.2143 9.13146 10.4221 9.34773 10.4221 9.60332V13.116ZM14.6688 13.116C14.6688 13.2471 14.6169 13.3651 14.5325 13.4503C14.5065 13.483 14.4675 13.5158 14.4156 13.5355C14.3506 13.5682 14.2727 13.5879 14.1948 13.5879H14.1558C14.0909 13.5879 14.0325 13.5748 13.9805 13.5551C13.9091 13.5289 13.8442 13.483 13.7987 13.4175C13.7857 13.4044 13.7727 13.3847 13.7662 13.3716L12.0584 11.0189V13.1226C12.0584 13.3847 11.8442 13.5944 11.5909 13.5944H11.5519C11.2922 13.5944 11.0844 13.3782 11.0844 13.1226V9.60332C11.0844 9.34117 11.2987 9.13146 11.5519 9.13146H11.5909C11.7662 9.13146 11.9156 9.22976 12 9.37394L13.6948 11.6677V9.60332C13.6948 9.34117 13.9091 9.13146 14.1623 9.13146H14.2013C14.461 9.13146 14.6688 9.34773 14.6688 9.60332V13.116ZM18.026 9.65574C18.026 9.91789 17.8117 10.1276 17.5584 10.1276H16.2468V10.8747H17.5519C17.8117 10.8747 18.0195 11.091 18.0195 11.3466V11.3859C18.0195 11.648 17.8052 11.8577 17.5519 11.8577H16.2468V12.6049H17.5519C17.8117 12.6049 18.0195 12.8211 18.0195 13.0767V13.116C18.0195 13.3782 17.8052 13.5879 17.5519 13.5879H15.7792H15.7727H15.7403C15.4805 13.5879 15.2727 13.3716 15.2727 13.116V9.61642C15.2727 9.35428 15.487 9.14456 15.7403 9.14456H15.7727H15.7792H17.5519C17.8117 9.14456 18.0195 9.36083 18.0195 9.61642V9.65574H18.026Z" fill="#212163"/>
</g>
<defs>
<clipPath id="clip0_1527_177">
<rect width="18" height="17" fill="white" transform="translate(3 4)"/>
</clipPath>
</defs>
</svg>
