<svg width="24" height="24" viewBox="0 0 24 24" fill="none" xmlns="http://www.w3.org/2000/svg">
<rect width="24" height="24" rx="3" fill="white"/>
<g clip-path="url(#clip0_1527_182)">
<path d="M15.5063 9.26464C13.8361 9.35713 12.3798 9.87647 11.1996 11.0574C10.0055 12.2526 9.46029 13.7111 9.61213 15.5181C8.95645 15.4327 8.3629 15.3402 7.76244 15.2904C7.55538 15.2691 7.31382 15.2975 7.13437 15.3971C6.55461 15.7386 5.99556 16.1157 5.33299 16.5425C5.45722 15.9805 5.53314 15.4825 5.67118 15.0059C5.77471 14.6573 5.72639 14.4652 5.41581 14.2375C3.42118 12.7791 2.57225 10.595 3.20722 8.33979C3.79388 6.26242 5.22946 4.99608 7.18268 4.34156C9.84679 3.44517 12.8491 4.36291 14.4641 6.53988C15.0508 7.32956 15.4097 8.21884 15.5063 9.26464ZM7.81765 8.56033C7.83145 8.1477 7.48636 7.77776 7.07225 7.76353C6.65124 7.7493 6.30615 8.08367 6.29234 8.51053C6.27854 8.9445 6.60293 9.2931 7.02394 9.30021C7.45185 9.31444 7.80385 8.98007 7.81765 8.56033ZM11.8276 7.76353C11.4135 7.77064 11.0684 8.13347 11.0753 8.5461C11.0822 8.97296 11.4273 9.30733 11.8483 9.30733C12.2762 9.30021 12.5937 8.96584 12.5937 8.52476C12.5868 8.0979 12.2486 7.75642 11.8276 7.76353Z" fill="#212163"/>
<path d="M19.261 19.9999C18.7296 19.7581 18.2464 19.3952 17.7288 19.3383C17.2112 19.2814 16.6728 19.5873 16.1345 19.6442C14.4918 19.815 13.0217 19.3454 11.8139 18.1929C9.50871 15.9946 9.84 12.6224 12.5041 10.8225C14.8714 9.22181 18.35 9.75538 20.0202 11.975C21.4765 13.9101 21.304 16.4855 19.5302 18.1147C19.0125 18.5842 18.8262 18.9755 19.1575 19.5944C19.2196 19.7083 19.2265 19.8577 19.261 19.9999ZM13.2357 13.9884C13.5739 13.9884 13.85 13.718 13.8638 13.3765C13.8776 13.0137 13.5946 12.7078 13.2426 12.7078C12.8906 12.7078 12.6007 13.0137 12.6145 13.3694C12.6283 13.7109 12.9044 13.9884 13.2357 13.9884ZM17.1214 12.7078C16.7971 12.7078 16.5141 12.9782 16.5003 13.3196C16.4865 13.6825 16.7625 13.9813 17.1076 13.9813C17.4458 13.9813 17.715 13.718 17.7219 13.3694C17.7426 13.0137 17.4665 12.7078 17.1214 12.7078Z" fill="#212163"/>
</g>
<defs>
<clipPath id="clip0_1527_182">
<rect width="18" height="16" fill="white" transform="translate(3 4)"/>
</clipPath>
</defs>
</svg>
